HIERARCHY
ROOT Hips
{
	OFFSET -14.64140 90.27770 -84.91600
	CHANNELS 6 Xposition Yposition Zposition Zrotation Xrotation Yrotation
	JOINT Spine
	{
		OFFSET 0.00000 13.20850 -1.60436
		CHANNELS 3 Zrotation Xrotation Yrotation
		JOINT Spine1
		{
			OFFSET 0.00000 8.61716 0.00000
			CHANNELS 3 Zrotation Xrotation Yrotation
			JOINT Spine2
			{
				OFFSET 0.00000 8.61717 0.00000
				CHANNELS 3 Zrotation Xrotation Yrotation
				JOINT Spine3
				{
					OFFSET 0.00000 8.61717 0.00000
					CHANNELS 3 Zrotation Xrotation Yrotation
					JOINT Neck
					{
						OFFSET 0.00000 11.07920 1.10792
						CHANNELS 3 Zrotation Xrotation Yrotation
						JOINT Neck1
						{
							OFFSET 0.00000 7.08032 0.00000
							CHANNELS 3 Zrotation Xrotation Yrotation
							JOINT Head
							{
								OFFSET 0.00000 7.08031 0.00000
								CHANNELS 3 Zrotation Xrotation Yrotation
								End site
								{
									OFFSET 0.00000 0.00000 0.00000
								}
							}
						}
					}
					JOINT RightShoulder
					{
						OFFSET -0.01000 7.91373 5.19711
						CHANNELS 3 Zrotation Xrotation Yrotation
						JOINT RightArm
						{
							OFFSET -18.41580 0.00000 0.00000
							CHANNELS 3 Zrotation Xrotation Yrotation
							JOINT RightForeArm
							{
								OFFSET -29.11090 0.00000 0.00000
								CHANNELS 3 Zrotation Xrotation Yrotation
								JOINT RightHand
								{
									OFFSET -24.65040 0.00000 0.00000
									CHANNELS 3 Zrotation Xrotation Yrotation
									JOINT RightHandThumb1
									{
										OFFSET -5.35114 -0.85590 3.97906
										CHANNELS 3 Zrotation Xrotation Yrotation
										JOINT RightHandThumb2
										{
											OFFSET -4.52789 0.00000 0.00000
											CHANNELS 3 Zrotation Xrotation Yrotation
											JOINT RightHandThumb3
											{
												OFFSET -2.46976 0.00000 0.00000
												CHANNELS 3 Zrotation Xrotation Yrotation
												End site
												{
													OFFSET 0.00000 0.00000 0.00000
												}
											}
										}
									}
									JOINT RightHandIndex1
									{
										OFFSET -14.26970 0.00000 2.88139
										CHANNELS 3 Zrotation Xrotation Yrotation
										JOINT RightHandIndex2
										{
											OFFSET -5.48836 0.00000 0.00000
											CHANNELS 3 Zrotation Xrotation Yrotation
											JOINT RightHandIndex3
											{
												OFFSET -3.01859 0.00000 0.00000
												CHANNELS 3 Zrotation Xrotation Yrotation
												End site
												{
													OFFSET 0.00000 0.00000 0.00000
												}
											}
										}
									}
									JOINT RightHandMiddle1
									{
										OFFSET -14.26970 0.00000 -0.09147
										CHANNELS 3 Zrotation Xrotation Yrotation
										JOINT RightHandMiddle2
										{
											OFFSET -6.17441 0.00000 0.00000
											CHANNELS 3 Zrotation Xrotation Yrotation
											JOINT RightHandMiddle3
											{
												OFFSET -3.56743 0.00000 0.00000
												CHANNELS 3 Zrotation Xrotation Yrotation
												End site
												{
													OFFSET 0.00000 0.00000 0.00000
												}
											}
										}
									}
									JOINT RightHandRing1
									{
										OFFSET -12.69180 0.00000 -3.06433
										CHANNELS 3 Zrotation Xrotation Yrotation
										JOINT RightHandRing2
										{
											OFFSET -5.62556 0.00000 0.00000
											CHANNELS 3 Zrotation Xrotation Yrotation
											JOINT RightHandRing3
											{
												OFFSET -3.56744 0.00000 0.00000
												CHANNELS 3 Zrotation Xrotation Yrotation
												End site
												{
													OFFSET 0.00000 0.00000 0.00000
												}
											}
										}
									}
									JOINT RightHandPinky1
									{
										OFFSET -11.11390 0.00000 -6.03719
										CHANNELS 3 Zrotation Xrotation Yrotation
										JOINT RightHandPinky2
										{
											OFFSET -4.52789 0.00000 0.00000
											CHANNELS 3 Zrotation Xrotation Yrotation
											JOINT RightHandPinky3
											{
												OFFSET -2.46976 0.00000 0.00000
												CHANNELS 3 Zrotation Xrotation Yrotation
												End site
												{
													OFFSET 0.00000 0.00000 0.00000
												}
											}
										}
									}
								}
							}
						}
					}
					JOINT LeftShoulder
					{
						OFFSET 0.01000 7.91373 5.19711
						CHANNELS 3 Zrotation Xrotation Yrotation
						JOINT LeftArm
						{
							OFFSET 18.41580 0.00000 0.00000
							CHANNELS 3 Zrotation Xrotation Yrotation
							JOINT LeftForeArm
							{
								OFFSET 29.11090 0.00000 0.00000
								CHANNELS 3 Zrotation Xrotation Yrotation
								JOINT LeftHand
								{
									OFFSET 24.65040 0.00000 0.00000
									CHANNELS 3 Zrotation Xrotation Yrotation
									JOINT LeftHandThumb1
									{
										OFFSET 5.35114 -0.85590 3.97906
										CHANNELS 3 Zrotation Xrotation Yrotation
										JOINT LeftHandThumb2
										{
											OFFSET 4.52789 0.00000 0.00000
											CHANNELS 3 Zrotation Xrotation Yrotation
											JOINT LeftHandThumb3
											{
												OFFSET 2.46977 0.00000 0.00000
												CHANNELS 3 Zrotation Xrotation Yrotation
												End site
												{
													OFFSET 0.00000 0.00000 0.00000
												}
											}
										}
									}
									JOINT LeftHandIndex1
									{
										OFFSET 14.26970 0.00000 2.88139
										CHANNELS 3 Zrotation Xrotation Yrotation
										JOINT LeftHandIndex2
										{
											OFFSET 5.48836 0.00000 0.00000
											CHANNELS 3 Zrotation Xrotation Yrotation
											JOINT LeftHandIndex3
											{
												OFFSET 3.01859 0.00000 0.00000
												CHANNELS 3 Zrotation Xrotation Yrotation
												End site
												{
													OFFSET 0.00000 0.00000 0.00000
												}
											}
										}
									}
									JOINT LeftHandMiddle1
									{
										OFFSET 14.26970 0.00000 -0.09147
										CHANNELS 3 Zrotation Xrotation Yrotation
										JOINT LeftHandMiddle2
										{
											OFFSET 6.17440 0.00000 0.00000
											CHANNELS 3 Zrotation Xrotation Yrotation
											JOINT LeftHandMiddle3
											{
												OFFSET 3.56744 0.00000 0.00000
												CHANNELS 3 Zrotation Xrotation Yrotation
												End site
												{
													OFFSET 0.00000 0.00000 0.00000
												}
											}
										}
									}
									JOINT LeftHandRing1
									{
										OFFSET 12.69180 0.00000 -3.06433
										CHANNELS 3 Zrotation Xrotation Yrotation
										JOINT LeftHandRing2
										{
											OFFSET 5.62556 0.00000 0.00000
											CHANNELS 3 Zrotation Xrotation Yrotation
											JOINT LeftHandRing3
											{
												OFFSET 3.56744 0.00000 0.00000
												CHANNELS 3 Zrotation Xrotation Yrotation
												End site
												{
													OFFSET 0.00000 0.00000 0.00000
												}
											}
										}
									}
									JOINT LeftHandPinky1
									{
										OFFSET 11.11390 0.00000 -6.03719
										CHANNELS 3 Zrotation Xrotation Yrotation
										JOINT LeftHandPinky2
										{
											OFFSET 4.52789 0.00000 0.00000
											CHANNELS 3 Zrotation Xrotation Yrotation
											JOINT LeftHandPinky3
											{
												OFFSET 2.46976 0.00000 0.00000
												CHANNELS 3 Zrotation Xrotation Yrotation
												End site
												{
													OFFSET 0.00000 0.00000 0.00000
												}
											}
										}
									}
								}
							}
						}
					}
					JOINT pCube4
					{
						OFFSET 0.00000 10.91090 1.10792
						CHANNELS 3 Zrotation Xrotation Yrotation
						End site
						{
							OFFSET 0.00000 0.00000 0.00000
						}
					}
				}
			}
		}
	}
	JOINT RightUpLeg
	{
		OFFSET -9.98441 0.00000 0.00000
		CHANNELS 3 Zrotation Xrotation Yrotation
		JOINT RightLeg
		{
			OFFSET 0.00000 -42.11790 0.00000
			CHANNELS 3 Zrotation Xrotation Yrotation
			JOINT RightFoot
			{
				OFFSET 0.00000 -45.00020 -0.00001
				CHANNELS 3 Zrotation Xrotation Yrotation
				JOINT RightForeFoot
				{
					OFFSET 0.00000 -3.74820 0.00000
					CHANNELS 3 Zrotation Xrotation Yrotation
					JOINT RightToeBase
					{
						OFFSET 0.00000 0.06325 14.43120
						CHANNELS 3 Zrotation Xrotation Yrotation
						End site
						{
							OFFSET 0.00000 0.00000 0.00000
						}
					}
				}
			}
		}
	}
	JOINT LeftUpLeg
	{
		OFFSET 9.98441 0.00000 0.00000
		CHANNELS 3 Zrotation Xrotation Yrotation
		JOINT LeftLeg
		{
			OFFSET 0.00000 -42.11800 0.00000
			CHANNELS 3 Zrotation Xrotation Yrotation
			JOINT LeftFoot
			{
				OFFSET 0.00000 -45.00070 0.00000
				CHANNELS 3 Zrotation Xrotation Yrotation
				JOINT LeftForeFoot
				{
					OFFSET 0.00000 -3.74824 0.00000
					CHANNELS 3 Zrotation Xrotation Yrotation
					JOINT LeftToeBase
					{
						OFFSET 0.00000 0.06325 14.43110
						CHANNELS 3 Zrotation Xrotation Yrotation
						End site
						{
							OFFSET 0.00000 0.00000 0.00000
						}
					}
				}
			}
		}
	}
}
MOTION
Frames: 4
Frame Time: 0.050000
0.0250656143913526 -0.01111942304337099 -0.004074334501528792 -0.04987699217602244 -0.028682621492916695 0.016539072257518047 -4.790051153524242 9.317613037600195 -0.4001700557990847 -0.8556695799905897 2.970071156777159 0.4317409521579642 -1.028487083364992 0.47870149745338847 -0.5961250858318928 -1.1026343665454525 0.26677023195050553 -0.9959476806731813 -0.6555479678335766 6.185989434191475 1.11605022667256 -0.5078705000346011 -2.1334667245629646 -2.4274236688945052 -0.5764272395170575 -16.815876193905503 -0.08675516057871172 2.9232111124406774 0.14111623418318264 -7.0475423847308525 52.85217637825001 4.726292492435083 35.6198718697086 6.72025698822202 17.565074669699335 74.2596600935405 27.685716174432642 -0.1270915816520335 -9.55803572270787 4.5724991612037345 -0.09657682166251534 -1.578742821298633 0.009800594897408596 -0.04118651526902393 -56.221237827043005 0.0036966018957525298 0.0431455153149932 -56.21194091219235 -38.72499209630139 0.022689753590234275 -0.002418428872682606 -0.011861046771404923 2.4318699483072443e-05 -0.006019457106184978 -0.022742221188686827 0.042284672923462364 0.019247013122209142 -36.68938785826532 -0.00047998795309076194 0.0065234566652949775 0.009012166992217272 0.033949002438609925 -0.003371986817266007 0.025266726632667685 -0.02486555653552678 0.0439205546941854 -19.737882286987123 0.0194892626505481 -0.03783317850687441 -0.0035400933047496064 0.01453490043987929 0.029640112216915506 -0.04177856265939369 0.01613808853441191 0.0493123433386726 24.055084993581925 0.03658520140383201 0.014820810546315573 28.89565949494316 -0.013858520036805084 0.014159928069682758 28.90795329556683 -0.002373255334533258 -0.01138241193304692 -2.1432501273450546 0.016879309910382917 7.056332046694121 -50.802093655461626 19.74458787841153 -29.18017484759162 -24.441985809106544 14.953659045359137 -82.20884576537583 -25.716765143206207 -8.025952375606263 6.282115087277461 -0.435579815342522 0.08472996390726527 -8.13643746774357 0.048217429589318635 0.02643758083849612 44.54600119658528 -0.012337030595706884 -0.014620376287106565 44.540327057170856 12.431385579324928 0.02688614029076363 0.03574842861557912 -0.020196316347666898 -0.039579296946321604 0.009142311280779976 -0.039118221274543 0.01690125195008677 -6.675167814526788e-05 11.137399708802265 -0.049467905052335795 -0.012571031798025238 -0.005115557667757377 0.04245849029649603 0.0013365560282061885 0.040128303949029484 0.0062421773051671015 -0.021925013715318818 4.789944329490966 0.005941659457382194 0.04702673605451295 -0.04248132222547438 -0.04242239197570921 0.01918470621520324 0.012998335912332685 0.03166738971763818 0.024099635647916368 -5.58684937928169 0.007324092033083226 0.008323246360972775 -6.751242159467922 0.033863701837166346 0.017135374040350013 -6.711197432394768 -0.011423737402911468 -0.022213895807644025 0.004870791675990595 -0.043806391468463254 0.0033218478332214395 8.028120673235067 3.4897899542149498 -19.195558132981198 0.007264205830856637 10.429016035610763 0.02221688514972838 -5.573651051970658 -15.646998066181673 3.146660288320556 -0.021829856476914343 -0.009938834699333873 -0.00407662455461319 -0.012168707018330128 4.721438983513559 0.04026576044581738 12.485261774236543 -8.251056821890508 6.8792552819831085 0.00440061676692993 46.41761559418714 0.007816839088079328 -4.32302404540525 -14.755732727177454 -3.8161897938931353 -0.0214614393208308 0.002784199720944348 -0.021237059135354334 -9.581100170228813e-05 -10.767722369181522 0.049632080551094165 
0.016736915673872272 -0.026319799053384885 0.034553911971004894 -0.0006780848278539523 -0.03607155634076584 0.04563816449115671 -4.87177404322263 9.221683910078601 -0.42469045317532994 -0.7973063384184642 2.928803616981491 0.4087982885396396 -0.9912632423701595 0.4084550974201015 -0.5954750267943443 -1.1229566558481254 0.20316039807056863 -0.9764963706546266 -0.6971606900626123 6.101564531657952 1.1789841116174433 -0.5120781498325049 -2.158662234189928 -2.11607863307307 -0.569450268418452 -16.732832712564072 -0.057031905088144624 3.1285474837733136 0.044032956444738945 -7.110061025882874 50.57809927699035 4.227688233726008 33.09318776740201 2.0612323148911837 17.10725789608538 71.19009399713602 28.66411935940812 -0.1908969531801955 -8.824385001106473 4.495652048127578 -0.12007863021297552 -1.554782849674983 0.0002501648800330591 0.03934244201867266 -56.25395935546744 -0.041792090633515175 0.032694224060369176 -56.19324420769104 -38.7358335327248 0.045235942600776 0.012189788515669655 -0.0431583410935831 -0.006499786379156462 -0.013178703967855199 0.016659568500014058 -0.03125214156221098 -0.014997787745119784 -36.69834890411814 0.03947494399410645 -0.030270166859002474 0.021179978049364355 -0.028214249647418976 -0.003896056327834497 -0.015169909471610699 0.017580510589469574 -0.030951943462265263 -19.7665792061595 0.0008482803024222747 -0.021349514474779587 0.025656238166056815 -0.018895725173804993 -0.02886764311389319 0.036422171589378126 0.03323750124772596 -0.03046168334362546 24.01883733370535 0.0448873521863499 -0.028014918182706246 28.871008458836975 -0.026822235082888213 -0.049183161674239306 28.853626792369568 -0.03693133632865411 -0.015637107913005432 -2.2066341141411465 0.08408214729275743 7.151202556370631 -49.15728099503348 19.779313560358325 -28.871084622295882 -19.751625354789933 13.794290341119487 -80.76454606534062 -26.426481668640825 -8.452781011817962 6.713356581130822 -0.4776489413500895 0.07682527385884187 -8.132817348298975 0.01577086571793595 -0.011114235688371239 44.55455942538106 -0.023799007604490757 -0.03501493022886547 44.54830353852351 12.441670347489854 -0.02268672713390049 -0.022361212516044494 0.0024434693281381896 0.007813386021747987 -0.01296147013392557 0.010588160704577998 -0.0066317897692371045 0.037129925299480226 11.116926884857298 0.028583563528031777 0.023178719213674797 -0.021093089527070324 0.045646222821914495 -0.0380188588700215 -0.01495507252537681 -0.04277125349059665 -0.00468387936539772 4.73717541462179 -0.02908085481740221 0.0192807931318413 0.03621791709932286 -0.001388778293974476 0.04818305233004539 -0.009622913885038664 -0.008715078358402462 0.027218176594208898 -5.565466572418665 -0.011743894403288104 0.011564188187762331 -6.720729194638093 -0.037983846946026044 0.04349049025456124 -6.704097850354312 0.031810586537594124 0.00010580916479510141 -0.013817492151731487 -0.03281249502193679 0.0041243945141250585 8.047950025747532 3.469674769129631 -19.25107440858467 -0.020002313524705224 10.376615160265802 0.01213695879447215 -5.658355934458972 -15.685447909319732 3.1453178677152316 -0.000795856983801452 -0.0029094394136264436 0.013933120940190705 -0.029766950459550995 4.726325548512726 -0.010252942038028002 12.471860378274249 -8.256746543118213 6.8389309000145735 0.030435252772102107 46.39284493111788 0.008512855272044716 -4.302749684412954 -14.743382835073373 -3.8443310165051017 0.03014324458977075 0.018093118608840948 -0.024699134323480122 -0.047938655818503026 -10.709224084394453 -0.005377285310289015 
0.019483201688558507 -0.02249580935826534 -0.022824795412102427 0.00472045496454637 0.03643507947835688 -0.00536765466397185 -4.801873328521611 9.147877170574453 -0.43132806385965206 -0.7635963969218957 2.9216398282441367 0.43048579792515335 -0.9469310721066155 0.45445422877075303 -0.7904099919199413 -1.079314622007007 0.16023896436423082 -0.9804341184024484 -0.6939556165004253 6.011696067438259 1.1282065172968467 -0.4979616674507214 -2.0579599476884525 -2.14942322088915 -0.5607363813549857 -16.636645045411043 -0.09682789434012985 3.633312052497869 -0.039076740943602 -7.208081209490797 48.966327818638824 4.185008432543334 30.268574013641885 -0.9696081465158006 16.910346040471797 68.13485265244188 29.84392710847129 -0.1688138495006902 -8.621307919889599 4.489213221551082 -0.1282396583585764 -1.6215479937633748 0.03085349000336581 -0.044925255728776356 -56.2281333644884 -0.02745745369289021 -0.042137687335819005 -56.190745184585325 -38.80530451168566 0.0037455981509172944 -0.04425647542018205 -0.010962997596298436 -0.03567163015610236 0.03985582208548283 0.015967524369420054 0.01420152208672952 0.013907030926212902 -36.65499884269926 -0.007798936137104104 -0.038495350528928024 0.01768624072842855 -0.03886684716756676 -0.017478318503945097 -0.012000954299416161 -0.030505073576787407 0.005832223775955072 -19.742433660328253 -0.00013027856429326094 0.03962602887883485 0.0024510326461167874 -0.004860379632301714 0.0026472901570910746 0.0258462101654706 -0.03496881826906339 0.029069033020086267 24.03641603170351 0.010662496426563452 -0.03663377097048161 28.887344680396417 0.03393411365390114 0.012146642997564324 28.887751843415888 -0.034811504701699865 0.021032783519698835 -2.3979134356091976 0.07210849511315351 7.229156188843336 -47.67176625452952 20.357531508087828 -28.756673235311364 -14.587106216926749 11.74023136955388 -79.40092945383743 -27.51410465495547 -9.121366576402623 7.385106702509902 -0.4777715497158552 0.04396658875911095 -8.155476527593317 0.03909458898511168 0.03362891111688605 44.551973380433765 0.0028342016756601673 -0.03503904520789551 44.56284661127081 12.489754429505743 0.034052039870009466 -0.005709016696990101 -0.010283293880665366 0.041403094464362244 0.016680971222635194 -0.018468808336445163 0.029283077257418074 0.0133385867925315 11.124363334676243 0.010326520790158856 -0.01205360601488951 0.044402934887452485 -0.008138809303299337 -0.016247518175044162 0.021664330745626542 0.04958515720972653 0.004249153877607882 4.754684713280414 -0.00880015554363065 -0.026709408155224965 -0.024021301515311226 -0.03418377149595111 -0.04861434303954755 0.0017889606475878545 -0.030090367041647786 0.009829059269448416 -5.553426983924109 0.001549715101199234 0.012297836202537401 -6.710651759679367 0.014568140426807551 -0.0007244179061782918 -6.743082397907215 0.009337173670148457 0.0035540675610994613 0.02612600014459626 -0.027564529279885838 -0.017117448552604983 8.006571560966817 3.498462321646869 -19.20630790152792 0.012777755764415333 10.405261375880926 0.03196643199124387 -5.606575358351205 -15.654560774314325 3.165576572663813 -0.007311511432245656 -0.017437822911036654 -0.0013657682864519224 0.03255756750103917 4.703479682583763 0.03911119416621312 12.415961018429396 -8.232083361089419 6.881341628892938 0.00045606989472623784 46.380513980822094 -0.007051185286523251 -4.34910811005041 -14.719606067692283 -3.823498482716948 -0.0460123178027777 -0.01712290757580431 0.013736944391908203 -0.009789035467604663 -10.731019177245658 -0.03303722329563745 
-0.014261763157210033 -0.04933338649853151 0.0393378173036365 -0.011444918760271075 -0.017139795326549488 -0.007418732311831527 -4.75556363806941 9.076932834132226 -0.38825183430374205 -0.8224433444174992 2.921693345236335 0.3602479853956035 -0.9253441351694044 0.4243090880061809 -0.9340965049637914 -1.0177999359267975 0.1398168948659712 -1.006788790151521 -0.7350959538738925 5.953759031648282 1.032816357383645 -0.4394655145715373 -2.037151805889379 -2.3529418255888226 -0.5726644009122966 -16.510716571109935 -0.06922723763295278 3.94133618970686 -0.15739690122964414 -7.251612727638411 47.83435784554972 4.133326812754204 28.811640182827976 -1.9229964480952113 16.83675835537157 66.60639915087229 30.86185955321063 -0.032175114490713676 -8.775706428269977 4.5002379733514974 -0.14319922454773354 -1.5950201428174493 -0.01785748650723357 -0.024035832087696704 -56.274476578606446 -0.04604888717938248 0.04056789665965456 -56.22855506759562 -38.776745687090056 0.01794442857549219 -0.023854657683985907 -0.03595977686516636 -0.04029061732515409 -0.025361704728733586 -0.015517443088275969 0.00654824568566056 -0.015076065227016261 -36.68758588536051 -0.02757300897841247 0.020359665237683254 0.013398196610239308 -0.021735087898576873 0.027080010290834566 -0.04688601756718062 -0.04409181352168343 0.02839718484579549 -19.726094025146995 -0.048264581726992495 0.018867121162079174 -0.0317397222738458 -0.038688044412531604 0.0361902798920431 0.023413968360128882 -0.01868992253575033 -0.015250013929581948 24.05955911893222 -0.03481834100928414 -0.01462298509357835 28.85957861294547 0.019960447837961345 0.004279902606509353 28.881585087164353 -0.04079201572049396 0.018707490891834763 -2.398997741652041 0.037391493988632174 7.148740878343718 -46.34294717158103 21.285597170681076 -29.43212767679376 -10.361974638439179 9.491386157761676 -78.83955665728732 -28.536670432186433 -9.686375136755686 8.023668403103558 -0.48516576528875854 0.09460927222329463 -8.081234571502742 -0.025782859415921934 -0.03349274057968994 44.55089220198847 0.04478257014676436 -0.020334130345146816 44.552347009630246 12.431091777842015 -0.01581361860748905 0.01858842334921502 0.0003895764388149698 0.011678480272048696 0.03272612334897288 0.03309531556274364 -0.03524234091393048 0.01880639179218729 11.109840288292464 -0.043961651262668114 -0.01182480137976879 -0.023593907275886405 0.0014726050673337422 0.02615483798219139 0.035485407906197954 -0.0044633552824761375 -0.006570217896044558 4.796329490666257 -0.011134154199338471 -0.042313099309671476 -0.014855706037825933 -0.011451646332441365 0.007650472330004342 -0.039698810808521945 0.007775645946161604 -0.0019962750772893885 -5.644260397303013 0.021631716224508015 -0.026422013463595663 -6.696942052802208 -0.036270517267101995 0.00117207230864705 -6.755290952249192 0.012217921158171703 -0.030057447840838202 -0.01114895949447878 -0.01208132643031598 0.0215038029190743 8.025727172046295 3.5170715752007893 -19.199890694217252 0.02977742653056905 10.351164080924839 0.0632226666454051 -5.613151975282391 -15.699853357551373 3.1767624799242933 -0.02017038883161425 0.038559521686471684 -0.047992764927427385 0.03200386566845766 4.703980945709768 0.02189712731779529 12.503618756705459 -8.272125021787069 6.922791798693945 0.026414222427479428 46.3912232772279 -0.012695291410046314 -4.364332107492519 -14.736338580796337 -3.872341879275302 -0.04854445200238827 0.03183108742748183 0.02633046767436213 -0.04905329306668515 -10.721946685135467 -0.046149365809034705 
